<?xml version="1.0" encoding="UTF-8"?>
<svg id="Layer_2" data-name="Layer 2" xmlns="http://www.w3.org/2000/svg" viewBox="0 0 317.8 324.36">
  <defs>
    <style>
      .cls-1 {
        fill: #000;
        stroke: #fff;
        stroke-miterlimit: 10;
        stroke-width: 10px;
      }
    </style>
  </defs>
  <g id="Layer_5" data-name="Layer 5">
    <g>
      <path class="cls-1" d="M53.66,319.36H21.08c-10.72,0-16.08-4.43-16.08-13.28V18.09c0-8.73,5.36-13.09,16.08-13.09h32.58v20.26h-21.67v273.83h21.67v20.26Z"/>
      <path class="cls-1" d="M148.56,142.87c0,9.24-5.63,13.86-16.9,13.86h-52.12c-11.03,0-16.55-4.62-16.55-13.86v-37.33h27.35v31.7h30.75V5h27.47v137.87Z"/>
      <path class="cls-1" d="M251.63,142.87c0,9.24-5.6,13.86-16.79,13.86h-57.75c-10.88,0-16.32-4.62-16.32-13.86V18.96c0-9.31,5.56-13.96,16.67-13.96h57.4c11.19,0,16.79,4.65,16.79,13.96v32.38h-27.58v-26.86h-35.8v112.76h35.8v-42.47h-20.42v-19.29h48.01v67.38Z"/>
      <path class="cls-1" d="M312.8,306.08c0,8.86-5.36,13.28-16.08,13.28h-35.33v-20.26h24.53V25.26h-24.53V5h35.33c10.72,0,16.08,4.36,16.08,13.09v287.99Z"/>
      <path class="cls-1" d="M148.56,305.49c0,9.25-5.52,13.87-16.55,13.87h-52.76c-10.88,0-16.32-4.62-16.32-13.87v-35h27v29.38h31.65v-38.1l-30-19.1v-4.75l30-18.81v-32h-31.65v27.63h-27v-33.16c0-9.31,5.56-13.96,16.67-13.96h52.41c11.03,0,16.55,4.65,16.55,13.96v35.68c0,6.01-3.05,10.67-9.16,13.96l-17.13,9.11,17.36,8.92c5.95,3.04,8.92,7.6,8.92,13.67v42.56Z"/>
      <path class="cls-1" d="M251.63,290.76c0,8.92-3.21,15.92-9.63,20.99-6.42,5.08-15.06,7.61-25.94,7.61h-55.29v-151.74h55.29c10.88,0,19.52,2.57,25.94,7.71s9.63,12.17,9.63,21.09v94.34ZM224.22,286.98v-87.16c0-8.47-5.36-12.7-16.08-12.7h-19.83v112.76h19.13c11.19,0,16.79-4.3,16.79-12.9Z"/>
    </g>
  </g>
</svg>