<?xml version="1.0" encoding="UTF-8"?>
<svg id="Layer_2" data-name="Layer 2" xmlns="http://www.w3.org/2000/svg" viewBox="0 0 323.48 323.48">
  <defs>
    <style>
      .cls-1 {
        fill: #fff;
      }

      .cls-1, .cls-2 {
        fill-rule: evenodd;
        stroke-width: 0px;
      }

      .cls-2 {
        fill: #000;
      }
    </style>
  </defs>
  <g id="Layer_1-2" data-name="Layer 1">
    <path class="cls-1" d="M161.74,0C72.41,0,0,72.41,0,161.74s72.41,161.74,161.74,161.74,161.74-72.41,161.74-161.74h0C323.48,72.41,251.07,0,161.74,0Z"/>
    <path class="cls-2" d="M161.74,317c-85.75,0-155.27-69.52-155.27-155.27,0-85.75,69.52-155.27,155.27-155.27,85.75,0,155.27,69.52,155.27,155.27h0c0,85.76-69.52,155.28-155.27,155.28h0Z"/>
    <path class="cls-1" d="M257.85,185.04h0c-2.79,13.44-15.19,47.94-54.74,66.62l-15.88-17.86-26.8,26.94c-30.91-.41-59.85-15.26-78.22-40.12,2.85.89,5.79,1.44,8.76,1.65,4.39.08,9.14-1.53,9.14-8.9v-72.7c.22-6.62-4.97-12.17-11.6-12.39-1.16-.04-2.33.09-3.45.39-12.41,2.86-22.32,33.82-22.32,33.82-.28-28.93,12.18-56.52,34.07-75.44,14.24-12.31,31.66-20.35,50.27-23.19-13.55,7.72-21.16,20.31-21.16,30.87,0,17,10.24,14.94,13.27,12.44v98.12c.52,1.23,1.19,2.39,2,3.45,2.75,3.8,7.16,6.03,11.85,6,10.25,0,23.55-11.7,23.55-11.7v-79.42c0-8.08-6.09-17.84-12.19-21.19,0,0,11.29-2,20,4.67h0c1.64-2,3.38-3.91,5.21-5.73,20.33-19.95,39.48-25.63,55.43-28.47h0s-29,22.79-29,53.37c0,22.74.59,78.2.59,78.2,10.76,10.39,26.76-4.62,41.22-19.43Z"/>
  </g>
</svg>